<svg t="1640600044201" class="icon" viewBox="0 0 1024 1024" version="1.1" xmlns="http://www.w3.org/2000/svg" p-id="2212" width="200" height="200"><path d="M900.4 117.6c-8.3-5.5-19.1-5.5-27.5 0L123.5 617.2c-7.7 5.1-12 14.1-11 23.3 0.9 9.2 6.9 17.2 15.5 20.6l195.3 78.2 91.9 160.9c4.5 7.9 12.9 12.8 22 12.7 8.8 0 17-4.7 21.5-12.2l52-86.4 242.1 96.9c2.9 1.2 6.1 1.8 9.2 1.7 12.4 0.2 23-8.8 25-21l124.9-749.4c1.5-9.8-3-19.6-11.5-24.9zM437.3 836.5l-70.2-121.7L840 208 437.3 836.5z" fill="#83A5D4" p-id="2213"></path></svg>